<mxfile host="Electron" modified="2024-05-28T15:58:37.563Z" agent="Mozilla/5.0 (Windows NT 10.0; Win64; x64) AppleWebKit/537.36 (KHTML, like Gecko) draw.io/24.4.0 Chrome/120.0.6099.109 Electron/28.1.0 Safari/537.36" etag="ldYkP7o60-ipBWbTHyLE" version="24.4.0" type="device">
  <diagram name="Page-1" id="O-liRdcIvMTXB1zzD7CP">
    <mxGraphModel dx="1098" dy="1890" grid="1" gridSize="10" guides="1" tooltips="1" connect="1" arrows="1" fold="1" page="1" pageScale="1" pageWidth="850" pageHeight="1100" math="0" shadow="0">
      <root>
        <mxCell id="0" />
        <mxCell id="1" parent="0" />
        <mxCell id="ulNwYwaVOvfkxFGB9bg--1" value="Homelayout" style="rounded=0;whiteSpace=wrap;html=1;" parent="1" vertex="1">
          <mxGeometry width="160" height="40" as="geometry" />
        </mxCell>
        <mxCell id="ulNwYwaVOvfkxFGB9bg--4" style="edgeStyle=orthogonalEdgeStyle;rounded=0;orthogonalLoop=1;jettySize=auto;html=1;entryX=0;entryY=0.5;entryDx=0;entryDy=0;" parent="1" source="ulNwYwaVOvfkxFGB9bg--2" target="ulNwYwaVOvfkxFGB9bg--3" edge="1">
          <mxGeometry relative="1" as="geometry" />
        </mxCell>
        <mxCell id="ulNwYwaVOvfkxFGB9bg--2" value="User navigate" style="rounded=0;whiteSpace=wrap;html=1;" parent="1" vertex="1">
          <mxGeometry x="20" y="170" width="100" height="40" as="geometry" />
        </mxCell>
        <mxCell id="ulNwYwaVOvfkxFGB9bg--6" value="" style="edgeStyle=orthogonalEdgeStyle;rounded=0;orthogonalLoop=1;jettySize=auto;html=1;" parent="1" source="ulNwYwaVOvfkxFGB9bg--3" target="ulNwYwaVOvfkxFGB9bg--5" edge="1">
          <mxGeometry relative="1" as="geometry" />
        </mxCell>
        <mxCell id="w8-Y26xpXfr5PRu3CIud-3" value="" style="edgeStyle=orthogonalEdgeStyle;rounded=0;orthogonalLoop=1;jettySize=auto;html=1;" edge="1" parent="1" source="ulNwYwaVOvfkxFGB9bg--3" target="w8-Y26xpXfr5PRu3CIud-2">
          <mxGeometry relative="1" as="geometry" />
        </mxCell>
        <mxCell id="ulNwYwaVOvfkxFGB9bg--3" value="Check if user is authenticated" style="rounded=0;whiteSpace=wrap;html=1;" parent="1" vertex="1">
          <mxGeometry x="150" y="170" width="100" height="40" as="geometry" />
        </mxCell>
        <mxCell id="ulNwYwaVOvfkxFGB9bg--5" value="Check if JWT token is available" style="rounded=0;whiteSpace=wrap;html=1;" parent="1" vertex="1">
          <mxGeometry x="150" y="250" width="100" height="40" as="geometry" />
        </mxCell>
        <mxCell id="w8-Y26xpXfr5PRu3CIud-7" value="" style="edgeStyle=orthogonalEdgeStyle;rounded=0;orthogonalLoop=1;jettySize=auto;html=1;" edge="1" parent="1" source="w8-Y26xpXfr5PRu3CIud-2" target="w8-Y26xpXfr5PRu3CIud-6">
          <mxGeometry relative="1" as="geometry" />
        </mxCell>
        <mxCell id="w8-Y26xpXfr5PRu3CIud-21" value="" style="edgeStyle=orthogonalEdgeStyle;rounded=0;orthogonalLoop=1;jettySize=auto;html=1;" edge="1" parent="1" source="w8-Y26xpXfr5PRu3CIud-2" target="w8-Y26xpXfr5PRu3CIud-20">
          <mxGeometry relative="1" as="geometry" />
        </mxCell>
        <mxCell id="w8-Y26xpXfr5PRu3CIud-2" value="user is authenticated" style="rhombus;whiteSpace=wrap;html=1;rounded=0;" vertex="1" parent="1">
          <mxGeometry x="340" y="150" width="80" height="80" as="geometry" />
        </mxCell>
        <mxCell id="w8-Y26xpXfr5PRu3CIud-9" value="" style="edgeStyle=orthogonalEdgeStyle;rounded=0;orthogonalLoop=1;jettySize=auto;html=1;" edge="1" parent="1" source="w8-Y26xpXfr5PRu3CIud-6" target="w8-Y26xpXfr5PRu3CIud-8">
          <mxGeometry relative="1" as="geometry" />
        </mxCell>
        <mxCell id="w8-Y26xpXfr5PRu3CIud-11" value="" style="edgeStyle=orthogonalEdgeStyle;rounded=0;orthogonalLoop=1;jettySize=auto;html=1;" edge="1" parent="1" source="w8-Y26xpXfr5PRu3CIud-6" target="w8-Y26xpXfr5PRu3CIud-10">
          <mxGeometry relative="1" as="geometry" />
        </mxCell>
        <mxCell id="w8-Y26xpXfr5PRu3CIud-6" value="is userprofile avai" style="rhombus;whiteSpace=wrap;html=1;rounded=0;" vertex="1" parent="1">
          <mxGeometry x="500" y="150" width="80" height="80" as="geometry" />
        </mxCell>
        <mxCell id="w8-Y26xpXfr5PRu3CIud-8" value="render children" style="whiteSpace=wrap;html=1;rounded=0;" vertex="1" parent="1">
          <mxGeometry x="640" y="160" width="120" height="60" as="geometry" />
        </mxCell>
        <mxCell id="w8-Y26xpXfr5PRu3CIud-13" value="" style="edgeStyle=orthogonalEdgeStyle;rounded=0;orthogonalLoop=1;jettySize=auto;html=1;" edge="1" parent="1" source="w8-Y26xpXfr5PRu3CIud-10" target="w8-Y26xpXfr5PRu3CIud-12">
          <mxGeometry relative="1" as="geometry" />
        </mxCell>
        <mxCell id="w8-Y26xpXfr5PRu3CIud-10" value="display loading indicator" style="whiteSpace=wrap;html=1;rounded=0;" vertex="1" parent="1">
          <mxGeometry x="480" y="250" width="120" height="60" as="geometry" />
        </mxCell>
        <mxCell id="w8-Y26xpXfr5PRu3CIud-15" value="" style="edgeStyle=orthogonalEdgeStyle;rounded=0;orthogonalLoop=1;jettySize=auto;html=1;" edge="1" parent="1" source="w8-Y26xpXfr5PRu3CIud-12" target="w8-Y26xpXfr5PRu3CIud-14">
          <mxGeometry relative="1" as="geometry" />
        </mxCell>
        <mxCell id="w8-Y26xpXfr5PRu3CIud-12" value="fetch user profile" style="whiteSpace=wrap;html=1;rounded=0;" vertex="1" parent="1">
          <mxGeometry x="480" y="330" width="120" height="60" as="geometry" />
        </mxCell>
        <mxCell id="w8-Y26xpXfr5PRu3CIud-17" value="yes" style="edgeStyle=orthogonalEdgeStyle;rounded=0;orthogonalLoop=1;jettySize=auto;html=1;" edge="1" parent="1" source="w8-Y26xpXfr5PRu3CIud-14" target="w8-Y26xpXfr5PRu3CIud-16">
          <mxGeometry relative="1" as="geometry" />
        </mxCell>
        <mxCell id="w8-Y26xpXfr5PRu3CIud-19" value="No" style="edgeStyle=orthogonalEdgeStyle;rounded=0;orthogonalLoop=1;jettySize=auto;html=1;entryX=0;entryY=0.5;entryDx=0;entryDy=0;" edge="1" parent="1" source="w8-Y26xpXfr5PRu3CIud-14" target="w8-Y26xpXfr5PRu3CIud-22">
          <mxGeometry relative="1" as="geometry">
            <mxPoint x="640" y="470" as="targetPoint" />
          </mxGeometry>
        </mxCell>
        <mxCell id="w8-Y26xpXfr5PRu3CIud-14" value="success" style="rhombus;whiteSpace=wrap;html=1;rounded=0;" vertex="1" parent="1">
          <mxGeometry x="500" y="430" width="80" height="80" as="geometry" />
        </mxCell>
        <mxCell id="w8-Y26xpXfr5PRu3CIud-16" value="render children" style="whiteSpace=wrap;html=1;rounded=0;" vertex="1" parent="1">
          <mxGeometry x="480" y="540" width="120" height="60" as="geometry" />
        </mxCell>
        <mxCell id="w8-Y26xpXfr5PRu3CIud-20" value="redirect to login page" style="whiteSpace=wrap;html=1;rounded=0;" vertex="1" parent="1">
          <mxGeometry x="320" y="250" width="120" height="60" as="geometry" />
        </mxCell>
        <mxCell id="w8-Y26xpXfr5PRu3CIud-24" value="" style="edgeStyle=orthogonalEdgeStyle;rounded=0;orthogonalLoop=1;jettySize=auto;html=1;" edge="1" parent="1" source="w8-Y26xpXfr5PRu3CIud-22" target="w8-Y26xpXfr5PRu3CIud-23">
          <mxGeometry relative="1" as="geometry" />
        </mxCell>
        <mxCell id="w8-Y26xpXfr5PRu3CIud-26" value="no" style="edgeStyle=orthogonalEdgeStyle;rounded=0;orthogonalLoop=1;jettySize=auto;html=1;" edge="1" parent="1" source="w8-Y26xpXfr5PRu3CIud-22" target="w8-Y26xpXfr5PRu3CIud-25">
          <mxGeometry relative="1" as="geometry" />
        </mxCell>
        <mxCell id="w8-Y26xpXfr5PRu3CIud-22" value="40x error" style="rhombus;whiteSpace=wrap;html=1;rounded=0;" vertex="1" parent="1">
          <mxGeometry x="660" y="430" width="80" height="80" as="geometry" />
        </mxCell>
        <mxCell id="w8-Y26xpXfr5PRu3CIud-23" value="redirect to logout" style="whiteSpace=wrap;html=1;rounded=0;" vertex="1" parent="1">
          <mxGeometry x="730" y="550" width="120" height="60" as="geometry" />
        </mxCell>
        <mxCell id="w8-Y26xpXfr5PRu3CIud-25" value="render error page" style="whiteSpace=wrap;html=1;rounded=0;" vertex="1" parent="1">
          <mxGeometry x="640" y="630" width="120" height="60" as="geometry" />
        </mxCell>
        <mxCell id="w8-Y26xpXfr5PRu3CIud-29" value="" style="edgeStyle=orthogonalEdgeStyle;rounded=0;orthogonalLoop=1;jettySize=auto;html=1;" edge="1" parent="1" source="w8-Y26xpXfr5PRu3CIud-27" target="w8-Y26xpXfr5PRu3CIud-28">
          <mxGeometry relative="1" as="geometry" />
        </mxCell>
        <mxCell id="w8-Y26xpXfr5PRu3CIud-27" value="render" style="rounded=0;whiteSpace=wrap;html=1;" vertex="1" parent="1">
          <mxGeometry x="20" y="80" width="100" height="40" as="geometry" />
        </mxCell>
        <mxCell id="w8-Y26xpXfr5PRu3CIud-31" value="" style="edgeStyle=orthogonalEdgeStyle;rounded=0;orthogonalLoop=1;jettySize=auto;html=1;" edge="1" parent="1" source="w8-Y26xpXfr5PRu3CIud-28" target="w8-Y26xpXfr5PRu3CIud-30">
          <mxGeometry relative="1" as="geometry" />
        </mxCell>
        <mxCell id="w8-Y26xpXfr5PRu3CIud-28" value="find the match route of navigation drawer to current route" style="rounded=0;whiteSpace=wrap;html=1;" vertex="1" parent="1">
          <mxGeometry x="150" y="65" width="100" height="70" as="geometry" />
        </mxCell>
        <mxCell id="w8-Y26xpXfr5PRu3CIud-33" value="yes" style="edgeStyle=orthogonalEdgeStyle;rounded=0;orthogonalLoop=1;jettySize=auto;html=1;" edge="1" parent="1" source="w8-Y26xpXfr5PRu3CIud-30" target="w8-Y26xpXfr5PRu3CIud-32">
          <mxGeometry relative="1" as="geometry" />
        </mxCell>
        <mxCell id="w8-Y26xpXfr5PRu3CIud-30" value="match found?" style="rhombus;whiteSpace=wrap;html=1;rounded=0;" vertex="1" parent="1">
          <mxGeometry x="340" y="60" width="80" height="80" as="geometry" />
        </mxCell>
        <mxCell id="w8-Y26xpXfr5PRu3CIud-32" value="expand all item-list ancestor" style="whiteSpace=wrap;html=1;rounded=0;" vertex="1" parent="1">
          <mxGeometry x="480" width="120" height="60" as="geometry" />
        </mxCell>
        <mxCell id="w8-Y26xpXfr5PRu3CIud-35" value="Student management" style="whiteSpace=wrap;html=1;rounded=0;" vertex="1" parent="1">
          <mxGeometry x="850" width="120" height="60" as="geometry" />
        </mxCell>
        <mxCell id="w8-Y26xpXfr5PRu3CIud-38" value="" style="edgeStyle=orthogonalEdgeStyle;rounded=0;orthogonalLoop=1;jettySize=auto;html=1;" edge="1" parent="1" source="w8-Y26xpXfr5PRu3CIud-36" target="w8-Y26xpXfr5PRu3CIud-37">
          <mxGeometry relative="1" as="geometry" />
        </mxCell>
        <mxCell id="w8-Y26xpXfr5PRu3CIud-36" value="render" style="rounded=0;whiteSpace=wrap;html=1;" vertex="1" parent="1">
          <mxGeometry x="860" y="90" width="100" height="40" as="geometry" />
        </mxCell>
        <mxCell id="w8-Y26xpXfr5PRu3CIud-40" value="" style="edgeStyle=orthogonalEdgeStyle;rounded=0;orthogonalLoop=1;jettySize=auto;html=1;" edge="1" parent="1" source="w8-Y26xpXfr5PRu3CIud-37" target="w8-Y26xpXfr5PRu3CIud-39">
          <mxGeometry relative="1" as="geometry" />
        </mxCell>
        <mxCell id="w8-Y26xpXfr5PRu3CIud-37" value="take sort, page &amp;amp; filter from search params store" style="rounded=0;whiteSpace=wrap;html=1;" vertex="1" parent="1">
          <mxGeometry x="1000" y="90" width="100" height="40" as="geometry" />
        </mxCell>
        <mxCell id="w8-Y26xpXfr5PRu3CIud-39" value="call API and render data" style="rounded=0;whiteSpace=wrap;html=1;" vertex="1" parent="1">
          <mxGeometry x="1130" y="90" width="100" height="40" as="geometry" />
        </mxCell>
        <mxCell id="w8-Y26xpXfr5PRu3CIud-41" value="search params store" style="whiteSpace=wrap;html=1;rounded=0;" vertex="1" parent="1">
          <mxGeometry x="850" y="-270" width="120" height="60" as="geometry" />
        </mxCell>
      </root>
    </mxGraphModel>
  </diagram>
</mxfile>
